<svg version="1.1" id="Layer_1" xmlns="http://www.w3.org/2000/svg" xmlns:xlink="http://www.w3.org/1999/xlink" x="0px" y="0px"
	 width="100%" viewBox="0 0 200 85" enable-background="new 0 0 200 85" xml:space="preserve">
<path fill="#FEFEFE" opacity="1.000000" stroke="none" 
	d="
M121.000000,86.000000 
	C80.666672,86.000000 40.833344,86.000000 1.000011,86.000000 
	C1.000007,57.666676 1.000007,29.333349 1.000004,1.000018 
	C67.666649,1.000012 134.333298,1.000012 200.999969,1.000006 
	C200.999969,29.333313 200.999969,57.666626 200.999985,85.999969 
	C174.500000,86.000000 148.000000,86.000000 121.000000,86.000000 
M21.137087,17.034742 
	C19.402452,17.513565 17.667818,17.992388 15.239508,18.746088 
	C8.786681,24.174744 9.230118,28.416637 16.383450,32.059967 
	C17.516853,32.637230 17.960802,34.568172 18.169474,36.306927 
	C15.920920,36.943726 13.672367,37.580524 11.165736,38.290413 
	C11.165736,40.200294 11.165736,42.606998 11.043413,45.941864 
	C11.029344,51.903854 10.920430,57.867611 11.031512,63.827271 
	C11.118818,68.511368 14.297222,72.614784 18.669270,72.793625 
	C27.052061,73.136513 35.458824,72.893372 43.497665,72.893372 
	C44.126015,68.006775 44.682533,63.678833 45.731564,58.777981 
	C46.861809,55.198029 47.992054,51.618080 49.551540,47.451870 
	C49.290863,45.307205 49.030190,43.162540 48.750610,40.338234 
	C46.122784,38.408245 43.391544,36.600777 40.905720,34.502556 
	C39.402096,33.233387 38.278988,31.513401 37.573185,29.632292 
	C39.050396,29.101852 40.527603,28.571413 42.685837,28.245476 
	C45.999905,30.197222 49.313976,32.148968 52.923485,34.779518 
	C53.989155,37.524555 55.054825,40.269588 56.028767,43.866383 
	C56.024696,45.579872 56.020622,47.293362 55.709232,49.468586 
	C55.490765,51.059776 55.485519,52.717388 55.014397,54.229877 
	C53.518078,59.033657 51.625351,63.727428 50.403854,68.593750 
	C50.103466,69.790436 51.612522,72.598846 52.567093,72.736008 
	C55.432999,73.147797 58.594028,73.136246 61.349247,72.314880 
	C65.751144,71.002609 67.475677,66.865273 66.015465,62.200348 
	C65.998642,61.780594 65.981819,61.360844 65.956841,60.243416 
	C65.494720,59.876423 64.812119,59.093857 64.603447,59.204571 
	C61.301022,60.956642 59.550617,58.533470 58.578609,56.356007 
	C58.163002,55.424961 60.099773,53.443840 61.734200,52.021954 
	C63.014790,52.084236 64.295380,52.146519 65.914932,52.550907 
	C66.222069,52.362362 66.529213,52.173820 66.991089,51.143353 
	C66.945213,49.434612 66.899345,47.725868 66.998398,45.137714 
	C66.946007,42.765446 66.893608,40.393181 66.979118,37.171776 
	C66.932899,35.454639 66.886681,33.737507 66.974159,31.276136 
	C66.942635,30.523626 66.911102,29.771118 66.982819,28.187527 
	C66.924866,20.212574 63.787247,17.024904 55.898300,17.020069 
	C52.257000,17.017838 48.615631,17.128296 44.066597,17.079636 
	C41.590981,17.061106 39.068230,16.760237 36.662746,17.161810 
	C35.688801,17.324404 34.970680,19.019424 34.043739,20.812380 
	C34.075714,21.877516 34.107689,22.942652 33.940674,24.718397 
	C33.691776,26.155712 33.442879,27.593025 32.856297,29.676933 
	C30.646208,35.605648 26.535166,41.222443 30.286417,48.793404 
	C29.598118,53.339272 32.900017,51.421917 34.282753,52.080738 
	C34.062984,52.619896 33.843220,53.159058 33.623455,53.698215 
	C34.407063,53.767193 35.190666,53.836166 36.294273,54.431561 
	C37.166023,54.964314 38.037773,55.497066 39.472584,56.221378 
	C39.997799,56.811611 40.523010,57.401848 40.919983,58.707195 
	C39.981243,61.707226 38.021965,62.180984 35.158257,61.411110 
	C28.508673,59.623447 23.928110,55.822884 22.216097,48.082550 
	C22.566376,44.078579 22.916653,40.074604 23.721586,35.539791 
	C24.187082,32.706490 24.652576,29.873188 25.883244,26.968502 
	C31.042732,23.762281 26.855740,21.433393 25.006365,18.376101 
	C23.963598,17.934942 22.920830,17.493786 21.137087,17.034742 
M158.482788,49.844742 
	C158.319702,49.895779 158.156631,49.946812 157.373093,49.994644 
	C156.960876,49.982094 156.548660,49.969547 155.381149,49.890732 
	C154.051697,48.975925 152.722229,48.061119 151.384415,47.151272 
	C149.900940,48.314159 148.417450,49.477051 146.862289,49.707798 
	C146.198059,48.056866 145.533813,46.405937 144.869583,44.755005 
	C144.233704,44.969360 143.597839,45.183716 142.961960,45.398071 
	C143.012497,51.181213 142.458694,56.996998 143.309448,62.736916 
	C143.977936,62.770874 144.646439,62.804832 145.314926,62.838787 
	C145.866837,59.336872 146.418732,55.834957 147.719589,52.732784 
	C148.152817,54.073257 148.871124,55.393063 148.970062,56.757774 
	C149.405884,62.768242 151.024384,63.881874 157.452225,61.998009 
	C157.452225,61.998009 157.951553,62.006752 158.481216,62.509663 
	C163.246796,63.831684 161.566284,60.070602 162.671692,58.000824 
	C163.096054,58.002460 163.520432,58.004093 163.989304,58.834373 
	C164.600540,60.156349 165.211761,61.478325 165.823013,62.800301 
	C166.540909,61.421196 167.457916,60.104454 167.915390,58.643776 
	C168.300064,57.415661 167.801254,55.849586 168.339386,54.748901 
	C168.827713,53.750118 170.187347,53.177338 171.162842,52.416744 
	C171.759918,53.300217 172.646606,54.113506 172.881958,55.084648 
	C173.187027,56.343510 173.121841,57.747288 172.953308,59.054821 
	C172.538010,62.276752 174.201950,63.187832 177.057678,63.765892 
	C178.593216,67.953339 183.252594,69.674263 187.885574,67.352898 
	C189.215973,66.686295 190.791626,64.637100 190.645645,63.413864 
	C190.494705,62.149052 188.547913,60.777554 187.086914,60.086334 
	C185.796143,59.475651 184.092712,59.737125 182.571487,59.613522 
	C188.464172,58.790073 190.189819,54.970482 190.776962,49.407780 
	C188.918121,49.306488 187.178741,49.116917 185.441422,49.134235 
	C179.466995,49.193790 178.126205,51.096767 178.798889,56.955173 
	C179.020050,58.881302 177.634445,60.991920 176.941147,62.102692 
	C176.928955,59.311531 177.526382,56.321575 176.702484,53.795109 
	C176.095474,51.933666 172.761810,49.088573 172.145081,49.426117 
	C169.421738,50.916584 163.533646,47.235336 163.309540,53.998936 
	C162.884415,53.998032 162.459274,53.997131 161.991150,53.237335 
	C161.668961,52.070881 161.346756,50.904423 161.011993,49.004295 
	C161.167862,47.452003 161.323715,45.899715 161.556229,43.583958 
	C159.684082,44.258362 158.459198,44.699612 157.368210,45.092617 
	C158.038162,47.013512 158.504074,48.349411 158.482788,49.844742 
M140.566681,37.392620 
	C143.787903,42.814457 148.646652,37.866272 153.577438,40.372005 
	C151.866882,35.196533 155.532852,29.999189 150.129822,27.278912 
	C148.036560,26.225018 144.968704,27.106861 142.344833,27.106861 
	C142.333969,27.752892 142.323105,28.398920 142.312256,29.044950 
	C144.449081,29.408941 146.585907,29.772930 148.722733,30.136921 
	C148.815216,30.637968 148.907684,31.139015 149.000168,31.640062 
	C144.924530,31.902948 140.389114,31.515665 139.211227,36.923672 
	C137.220490,35.941750 133.843170,35.313404 133.486511,33.914783 
	C132.162857,28.724001 138.055222,30.966812 139.956284,28.817375 
	C137.412201,25.982090 134.945267,25.217310 132.471268,27.583782 
	C130.706451,29.271893 129.233261,32.423431 129.492554,34.710789 
	C129.708771,36.618206 132.352829,38.910572 134.438293,39.752178 
	C136.356689,40.526356 139.654007,40.894352 140.566681,37.392620 
M108.547821,34.326031 
	C110.314400,42.694813 116.698975,38.886127 121.938293,39.652794 
	C121.938293,34.305630 122.023003,29.362389 121.854172,24.427820 
	C121.826317,23.613728 120.687416,22.837646 120.061974,22.043997 
	C119.379028,22.769026 118.538803,23.404505 118.059883,24.245693 
	C117.629570,25.001509 117.596100,25.983259 117.296799,27.249308 
	C112.328926,24.608646 110.647873,28.809296 107.932480,30.226301 
	C105.329536,26.719992 100.569839,25.676104 97.728668,27.988420 
	C95.128075,30.104940 95.176338,35.848087 97.815514,38.323151 
	C100.607864,40.941868 105.051369,40.658150 107.469582,37.634251 
	C105.013954,37.093544 102.590042,36.559822 100.166130,36.026100 
	C100.235497,35.479637 100.304863,34.933170 100.374237,34.386707 
	C102.914734,34.209946 105.455238,34.033180 108.547821,34.326031 
M73.334587,28.062407 
	C73.265068,31.210415 73.063118,34.364944 73.217514,37.501930 
	C73.256981,38.303692 74.424210,39.049950 75.073296,39.821709 
	C75.735619,39.063946 76.734680,38.400436 76.979469,37.525810 
	C77.326073,36.287449 76.771469,34.754578 77.235207,33.602413 
	C77.764343,32.287716 78.988762,31.252851 79.911034,30.096384 
	C80.597504,31.252802 81.543053,32.335876 81.897064,33.586414 
	C82.246109,34.819359 81.755730,36.286819 82.090942,37.527866 
	C82.326965,38.401695 83.327927,39.068909 83.987343,39.828377 
	C84.634918,39.057167 85.682472,38.361935 85.846420,37.498856 
	C86.182762,35.728203 85.797241,33.808155 86.213264,32.070351 
	C86.406639,31.262571 87.778305,30.736868 88.615837,30.083296 
	C89.104919,30.839521 89.901993,31.551527 90.018250,32.361282 
	C90.252113,33.990128 89.916473,35.708218 90.208290,37.318352 
	C90.372581,38.224812 91.319336,38.989452 91.913597,39.817982 
	C92.638359,38.948601 93.865318,38.144238 93.987961,37.196899 
	C94.283691,34.912544 94.613052,32.364971 93.875717,30.299486 
	C93.290787,28.660908 91.171928,26.485878 89.686180,26.448341 
	C84.420670,26.315313 79.134583,26.996832 73.334587,28.062407 
M109.200386,53.100060 
	C109.776138,55.536377 110.284393,57.991768 110.964577,60.398575 
	C111.200020,61.231686 111.862465,61.944126 112.329880,62.711681 
	C113.156853,62.068985 114.447891,61.588421 114.737976,60.758144 
	C117.239616,53.598145 113.858330,49.323490 106.441643,49.962078 
	C105.176422,50.071014 103.869766,49.698776 101.936737,49.473644 
	C101.936737,52.796173 101.740692,55.925835 102.029457,59.010101 
	C102.151642,60.315228 103.293129,61.524918 103.971329,62.777985 
	C104.623215,61.502144 105.402039,60.273441 105.897400,58.939476 
	C106.650894,56.910378 104.312027,53.638481 109.200386,53.100060 
M77.521912,51.195377 
	C80.316849,50.021942 83.111778,48.848507 86.213852,47.546127 
	C83.028267,43.891243 79.713013,44.890137 76.455437,46.818314 
	C72.194687,49.340275 72.432549,53.505295 73.409859,57.403801 
	C74.499542,61.750565 77.996216,63.361446 82.240303,62.845753 
	C83.631783,62.676674 84.894264,61.445953 86.215736,60.700726 
	C77.790268,59.754681 76.881737,58.913834 77.521912,51.195377 
M94.337708,49.150459 
	C93.373550,49.343918 92.058502,49.208393 91.510925,49.792427 
	C89.858215,51.555195 87.460320,53.525311 87.320076,55.550793 
	C87.173515,57.667622 88.810364,61.066364 90.580536,61.854645 
	C92.641350,62.772346 96.248238,62.282063 98.198784,60.954731 
	C102.285164,58.173981 100.420517,51.870644 94.337708,49.150459 
M140.081436,59.964447 
	C140.080246,57.643471 140.260330,55.301609 139.996384,53.010906 
	C139.876221,51.967987 138.878281,51.026207 138.278488,50.038551 
	C137.567368,51.089958 136.753342,52.089886 136.190216,53.215347 
	C135.924255,53.746887 136.347595,54.614010 136.096832,55.164200 
	C135.368927,56.761349 134.458038,58.275101 133.618958,59.821575 
	C132.782303,58.228352 131.807129,56.688381 131.165802,55.020073 
	C130.831131,54.149422 131.393173,52.897594 130.991684,52.098557 
	C130.515198,51.150215 129.437943,50.503738 127.755951,48.903305 
	C127.755951,52.335033 127.403320,54.370934 127.847076,56.215210 
	C128.376953,58.417416 129.399719,62.114967 130.541321,62.244904 
	C133.619934,62.595318 136.875031,61.395180 140.081436,59.964447 
M122.129654,62.899307 
	C123.438026,61.614975 126.081818,59.678986 125.827255,59.157326 
	C124.623718,56.690952 122.627762,54.611259 121.008522,52.515728 
	C122.287117,52.383244 124.000931,52.205658 126.858109,51.909599 
	C122.901588,48.256943 119.281769,48.088844 117.126152,50.868587 
	C113.171440,55.968330 120.206711,56.308727 122.227074,59.633339 
	C119.793434,59.633339 118.007347,59.633339 116.221260,59.633339 
	C116.076180,60.209446 115.931107,60.785549 115.786034,61.361656 
	C117.627975,61.887489 119.469917,62.413322 122.129654,62.899307 
M158.976318,27.660095 
	C158.975510,26.996466 159.184921,26.235392 158.931549,25.688833 
	C158.344925,24.423349 157.534378,23.261656 156.814636,22.057869 
	C156.216110,23.217077 155.165054,24.352152 155.101715,25.539900 
	C154.890015,29.509922 154.927399,33.503975 155.124786,37.476135 
	C155.165024,38.285847 156.315811,39.040371 156.954666,39.820339 
	C157.619461,39.068020 158.793961,38.356503 158.858032,37.556099 
	C159.095596,34.588200 158.967224,31.591003 158.976318,27.660095 
M127.270996,27.368067 
	C126.259056,27.593779 124.385582,27.763004 124.366516,28.053812 
	C124.139252,31.520042 124.119873,35.006809 124.244911,38.481037 
	C124.261719,38.947922 125.707161,39.873489 125.915146,39.733147 
	C126.720863,39.189468 127.818794,38.328320 127.860672,37.535362 
	C128.026520,34.395046 127.834686,31.235836 127.270996,27.368067 
M27.473160,18.594143 
	C27.473160,18.594143 27.395939,18.472042 27.473160,18.594143 
z"/>
<path fill="#6F79AB" opacity="1.000000" stroke="none" 
	d="
M22.186844,48.983383 
	C23.928110,55.822884 28.508673,59.623447 35.158257,61.411110 
	C38.021965,62.180984 39.981243,61.707226 41.375443,58.352402 
	C42.966949,58.448704 44.102997,58.899799 45.239048,59.350891 
	C44.682533,63.678833 44.126015,68.006775 43.497665,72.893372 
	C35.458824,72.893372 27.052061,73.136513 18.669270,72.793625 
	C14.297222,72.614784 11.118818,68.511368 11.031512,63.827271 
	C10.920430,57.867611 11.029344,51.903854 11.455303,45.519073 
	C15.307076,46.391983 18.746960,47.687683 22.186844,48.983383 
z"/>
<path fill="#7E86B1" opacity="1.000000" stroke="none" 
	d="
M65.988853,62.829330 
	C67.475677,66.865273 65.751144,71.002609 61.349247,72.314880 
	C58.594028,73.136246 55.432999,73.147797 52.567093,72.736008 
	C51.612522,72.598846 50.103466,69.790436 50.403854,68.593750 
	C51.625351,63.727428 53.518078,59.033657 55.014397,54.229877 
	C55.485519,52.717388 55.490765,51.059776 56.212391,49.238899 
	C58.132915,49.986095 59.550282,50.962978 60.967648,51.939861 
	C60.099773,53.443840 58.163002,55.424961 58.578609,56.356007 
	C59.550617,58.533470 61.301022,60.956642 64.603447,59.204571 
	C64.812119,59.093857 65.494720,59.876423 65.674454,60.712852 
	C64.756821,61.979332 64.121582,62.776371 63.265560,63.762516 
	C63.070038,64.210892 63.095303,64.470169 63.120567,64.729446 
	C63.508316,64.585205 63.896069,64.440956 64.552750,64.186447 
	C65.210747,63.660568 65.599800,63.244949 65.988853,62.829330 
M56.820934,70.649918 
	C58.355919,69.440666 59.890907,68.231422 61.425892,67.022171 
	C60.982937,66.598167 60.539986,66.174171 60.097031,65.750175 
	C58.855061,67.232178 57.613091,68.714180 56.820934,70.649918 
z"/>
<path fill="#C2C2CC" opacity="1.000000" stroke="none" 
	d="
M176.983597,63.018173 
	C177.634445,60.991920 179.020050,58.881302 178.798889,56.955173 
	C178.126205,51.096767 179.466995,49.193790 185.441422,49.134235 
	C187.178741,49.116917 188.918121,49.306488 190.776962,49.407780 
	C190.189819,54.970482 188.464172,58.790073 182.571487,59.613522 
	C184.092712,59.737125 185.796143,59.475651 187.086914,60.086334 
	C188.547913,60.777554 190.494705,62.149052 190.645645,63.413864 
	C190.791626,64.637100 189.215973,66.686295 187.885574,67.352898 
	C183.252594,69.674263 178.593216,67.953339 177.029678,63.383957 
	C177.001678,63.002026 176.983597,63.018177 176.983597,63.018173 
z"/>
<path fill="#C1C1CB" opacity="1.000000" stroke="none" 
	d="
M73.595444,27.716049 
	C79.134583,26.996832 84.420670,26.315313 89.686180,26.448341 
	C91.171928,26.485878 93.290787,28.660908 93.875717,30.299486 
	C94.613052,32.364971 94.283691,34.912544 93.987961,37.196899 
	C93.865318,38.144238 92.638359,38.948601 91.913597,39.817986 
	C91.319336,38.989452 90.372581,38.224812 90.208290,37.318352 
	C89.916473,35.708218 90.252113,33.990128 90.018250,32.361282 
	C89.901993,31.551527 89.104919,30.839521 88.615837,30.083296 
	C87.778305,30.736868 86.406639,31.262571 86.213264,32.070351 
	C85.797241,33.808155 86.182762,35.728203 85.846420,37.498856 
	C85.682472,38.361935 84.634918,39.057167 83.987343,39.828377 
	C83.327927,39.068909 82.326965,38.401695 82.090942,37.527866 
	C81.755730,36.286819 82.246109,34.819359 81.897064,33.586414 
	C81.543053,32.335876 80.597504,31.252802 79.911034,30.096382 
	C78.988762,31.252851 77.764343,32.287716 77.235207,33.602413 
	C76.771469,34.754578 77.326073,36.287449 76.979469,37.525810 
	C76.734680,38.400436 75.735619,39.063946 75.073296,39.821709 
	C74.424210,39.049950 73.256981,38.303692 73.217514,37.501930 
	C73.063118,34.364944 73.265068,31.210415 73.595444,27.716049 
z"/>
<path fill="#A3A6BC" opacity="1.000000" stroke="none" 
	d="
M34.139664,24.007788 
	C34.107689,22.942652 34.075714,21.877516 34.484688,20.409744 
	C39.024574,21.543964 43.125355,23.075932 47.222034,24.618790 
	C53.762943,27.082178 60.301125,29.552803 66.840462,32.020370 
	C66.886681,33.737507 66.932899,35.454639 66.528877,37.590557 
	C61.595104,36.706467 57.111576,35.403591 52.628044,34.100716 
	C49.313976,32.148968 45.999905,30.197222 42.291546,27.788887 
	C39.311390,26.224127 36.725529,25.115957 34.139664,24.007788 
z"/>
<path fill="#8F95B6" opacity="1.000000" stroke="none" 
	d="
M29.840475,48.056171 
	C26.535166,41.222443 30.646208,35.605648 33.355904,29.349104 
	C34.898643,29.346172 35.941780,29.671070 36.984917,29.995968 
	C38.278988,31.513401 39.402096,33.233387 40.905720,34.502556 
	C43.391544,36.600777 46.122784,38.408245 48.393303,40.673706 
	C47.053593,40.998714 46.071190,40.988243 44.756161,40.994888 
	C43.995335,41.123497 43.567131,41.234993 42.998207,41.053909 
	C42.525589,40.492008 42.193695,40.222679 41.861820,39.652016 
	C36.867897,39.547230 34.926006,43.268463 33.003517,47.008572 
	C32.999027,46.999851 33.016319,47.008209 32.657059,46.909336 
	C31.687344,47.210705 31.076885,47.610947 30.309805,48.020576 
	C30.153183,48.029961 29.840475,48.056171 29.840475,48.056171 
z"/>
<path fill="#C1C1CB" opacity="1.000000" stroke="none" 
	d="
M108.011162,30.968895 
	C110.647873,28.809296 112.328926,24.608646 117.296799,27.249308 
	C117.596100,25.983259 117.629570,25.001509 118.059883,24.245693 
	C118.538803,23.404505 119.379028,22.769026 120.061974,22.043999 
	C120.687416,22.837646 121.826317,23.613728 121.854172,24.427820 
	C122.023003,29.362389 121.938293,34.305630 121.938293,39.652794 
	C116.698975,38.886127 110.314400,42.694813 108.272331,33.732864 
	C108.001617,32.416096 108.006386,31.692495 108.011162,30.968895 
M117.891403,35.003437 
	C117.494980,33.388035 117.098564,31.772631 116.702148,30.157225 
	C115.668579,30.439817 113.921814,30.491329 113.740753,31.050142 
	C113.275467,32.486183 113.504555,34.147213 113.456116,35.718315 
	C114.826965,35.727242 116.197807,35.736168 117.891403,35.003437 
z"/>
<path fill="#B9B9C5" opacity="1.000000" stroke="none" 
	d="
M44.974293,17.187660 
	C48.615631,17.128296 52.257000,17.017838 55.898300,17.020069 
	C63.787247,17.024904 66.924866,20.212574 66.564743,28.591099 
	C59.688950,26.117174 53.194786,23.316154 46.815006,20.275166 
	C45.915295,19.846304 45.574039,18.245832 44.974293,17.187660 
z"/>
<path fill="#C2C2CC" opacity="1.000000" stroke="none" 
	d="
M140.026535,37.029152 
	C140.389114,31.515665 144.924530,31.902948 149.000168,31.640062 
	C148.907684,31.139015 148.815216,30.637968 148.722733,30.136921 
	C146.585907,29.772930 144.449081,29.408941 142.312256,29.044950 
	C142.323105,28.398920 142.333969,27.752892 142.344833,27.106861 
	C144.968704,27.106861 148.036560,26.225018 150.129822,27.278912 
	C155.532852,29.999189 151.866882,35.196533 153.577438,40.372005 
	C148.646652,37.866272 143.787903,42.814457 140.284500,37.196644 
	C140.002319,37.000668 140.026535,37.029152 140.026535,37.029152 
z"/>
<path fill="#AEAFC0" opacity="1.000000" stroke="none" 
	d="
M44.520447,17.133648 
	C45.574039,18.245832 45.915295,19.846304 46.815006,20.275166 
	C53.194786,23.316154 59.688950,26.117174 66.513123,29.006639 
	C66.911102,29.771118 66.942635,30.523626 66.907310,31.648254 
	C60.301125,29.552803 53.762943,27.082178 47.222034,24.618790 
	C43.125355,23.075932 39.024574,21.543964 34.530891,20.012112 
	C34.970680,19.019424 35.688801,17.324404 36.662746,17.161810 
	C39.068230,16.760237 41.590981,17.061106 44.520447,17.133648 
z"/>
<path fill="#8B91B3" opacity="1.000000" stroke="none" 
	d="
M18.723515,35.873253 
	C17.960802,34.568172 17.516853,32.637230 16.383450,32.059967 
	C9.230118,28.416637 8.786681,24.174744 15.611914,18.990658 
	C16.323425,20.158197 16.662531,21.081169 16.931393,22.271988 
	C16.735485,22.883741 16.609819,23.227648 16.156221,23.648163 
	C14.629020,24.548880 13.429750,25.372990 12.230482,26.197100 
	C12.540882,26.618841 12.851282,27.040585 13.161683,27.462326 
	C14.494804,26.363657 15.827926,25.264988 17.467165,24.107574 
	C18.187454,24.026697 18.601627,24.004564 19.050285,24.337053 
	C18.432701,25.936895 17.780630,27.182114 17.274364,28.148897 
	C20.176762,27.738531 22.647417,27.389208 25.118073,27.039886 
	C24.652576,29.873188 24.187082,32.706490 23.039280,35.782303 
	C21.145823,35.974293 19.934668,35.923771 18.723515,35.873253 
z"/>
<path fill="#C2C2CC" opacity="1.000000" stroke="none" 
	d="
M108.777359,53.020847 
	C104.312027,53.638481 106.650894,56.910378 105.897400,58.939476 
	C105.402039,60.273441 104.623215,61.502144 103.971329,62.777985 
	C103.293129,61.524918 102.151642,60.315228 102.029457,59.010101 
	C101.740692,55.925835 101.936737,52.796173 101.936737,49.473644 
	C103.869766,49.698776 105.176422,50.071014 106.441643,49.962078 
	C113.858330,49.323490 117.239616,53.598145 114.737976,60.758144 
	C114.447891,61.588421 113.156853,62.068985 112.329880,62.711681 
	C111.862465,61.944126 111.200020,61.231686 110.964577,60.398575 
	C110.284393,57.991768 109.776138,55.536377 108.777359,53.020847 
z"/>
<path fill="#C1C1CB" opacity="1.000000" stroke="none" 
	d="
M177.009872,62.993179 
	C174.201950,63.187832 172.538010,62.276752 172.953308,59.054821 
	C173.121841,57.747288 173.187027,56.343510 172.881958,55.084648 
	C172.646606,54.113506 171.759918,53.300217 171.162842,52.416748 
	C170.187347,53.177338 168.827713,53.750118 168.339386,54.748901 
	C167.801254,55.849586 168.300064,57.415661 167.915390,58.643776 
	C167.457916,60.104454 166.540909,61.421196 165.822998,62.800301 
	C165.211761,61.478325 164.600540,60.156349 163.996185,58.019547 
	C163.983719,56.134567 163.964340,55.064419 163.944977,53.994270 
	C163.533646,47.235336 169.421738,50.916584 172.145081,49.426117 
	C172.761810,49.088573 176.095474,51.933666 176.702484,53.795109 
	C177.526382,56.321575 176.928955,59.311531 176.962372,62.560432 
	C176.983597,63.018177 177.001678,63.002026 177.009872,62.993179 
z"/>
<path fill="#BFBFC9" opacity="1.000000" stroke="none" 
	d="
M107.971817,30.597599 
	C108.006386,31.692495 108.001617,32.416096 107.996292,33.498055 
	C105.455238,34.033180 102.914734,34.209946 100.374237,34.386707 
	C100.304863,34.933170 100.235497,35.479637 100.166130,36.026100 
	C102.590042,36.559822 105.013954,37.093544 107.469582,37.634251 
	C105.051369,40.658150 100.607864,40.941868 97.815514,38.323151 
	C95.176338,35.848087 95.128075,30.104940 97.728668,27.988420 
	C100.569839,25.676104 105.329536,26.719992 107.971817,30.597599 
z"/>
<path fill="#C1C1CB" opacity="1.000000" stroke="none" 
	d="
M77.361084,51.576294 
	C76.881737,58.913834 77.790268,59.754681 86.215736,60.700726 
	C84.894264,61.445953 83.631783,62.676674 82.240303,62.845753 
	C77.996216,63.361446 74.499542,61.750565 73.409859,57.403801 
	C72.432549,53.505295 72.194687,49.340275 76.455437,46.818314 
	C79.713013,44.890137 83.028267,43.891243 86.213852,47.546127 
	C83.111778,48.848507 80.316849,50.021942 77.361084,51.576294 
z"/>
<path fill="#7880AC" opacity="1.000000" stroke="none" 
	d="
M18.446495,36.090088 
	C19.934668,35.923771 21.145823,35.974293 22.811954,36.047722 
	C22.916653,40.074604 22.566376,44.078579 22.201469,48.532967 
	C18.746960,47.687683 15.307076,46.391983 11.516464,45.054993 
	C11.165736,42.606998 11.165736,40.200294 11.165736,38.290413 
	C13.672367,37.580524 15.920920,36.943726 18.446495,36.090088 
z"/>
<path fill="#BFBFC9" opacity="1.000000" stroke="none" 
	d="
M94.722641,49.209579 
	C100.420517,51.870644 102.285164,58.173981 98.198784,60.954731 
	C96.248238,62.282063 92.641350,62.772346 90.580536,61.854645 
	C88.810364,61.066364 87.173515,57.667622 87.320076,55.550793 
	C87.460320,53.525311 89.858215,51.555195 91.510925,49.792427 
	C92.058502,49.208393 93.373550,49.343918 94.722641,49.209579 
M94.117729,52.247585 
	C89.823814,52.627071 90.883736,55.727119 91.409607,58.163567 
	C91.557556,58.849037 93.832001,59.871159 94.435928,59.525238 
	C97.088654,58.005821 97.206833,55.672802 95.525604,53.215683 
	C95.343750,52.949909 95.046776,52.762913 94.117729,52.247585 
z"/>
<path fill="#BCBCC7" opacity="1.000000" stroke="none" 
	d="
M140.070770,60.387409 
	C136.875031,61.395180 133.619934,62.595318 130.541321,62.244904 
	C129.399719,62.114967 128.376953,58.417416 127.847076,56.215210 
	C127.403320,54.370934 127.755951,52.335033 127.755951,48.903305 
	C129.437943,50.503738 130.515198,51.150215 130.991684,52.098557 
	C131.393173,52.897594 130.831131,54.149422 131.165802,55.020073 
	C131.807129,56.688381 132.782303,58.228352 133.618958,59.821571 
	C134.458038,58.275101 135.368927,56.761349 136.096832,55.164200 
	C136.347595,54.614010 135.924255,53.746887 136.190216,53.215347 
	C136.753342,52.089886 137.567368,51.089958 138.278488,50.038551 
	C138.878281,51.026207 139.876221,51.967987 139.996384,53.010906 
	C140.260330,55.301609 140.080246,57.643471 140.070770,60.387409 
z"/>
<path fill="#979BB7" opacity="1.000000" stroke="none" 
	d="
M52.775764,34.440117 
	C57.111576,35.403591 61.595104,36.706467 66.459923,38.015125 
	C66.893608,40.393181 66.946007,42.765446 66.544487,45.572052 
	C62.767216,45.009136 59.443855,44.011883 56.120495,43.014626 
	C55.054825,40.269588 53.989155,37.524555 52.775764,34.440117 
z"/>
<path fill="#C1C1CB" opacity="1.000000" stroke="none" 
	d="
M121.720757,62.919235 
	C119.469917,62.413322 117.627975,61.887489 115.786034,61.361656 
	C115.931107,60.785549 116.076180,60.209446 116.221260,59.633339 
	C118.007347,59.633339 119.793434,59.633339 122.227074,59.633339 
	C120.206711,56.308727 113.171440,55.968330 117.126152,50.868587 
	C119.281769,48.088844 122.901588,48.256943 126.858109,51.909599 
	C124.000931,52.205658 122.287117,52.383244 121.008522,52.515728 
	C122.627762,54.611259 124.623718,56.690952 125.827255,59.157326 
	C126.081818,59.678986 123.438026,61.614975 121.720757,62.919235 
z"/>
<path fill="#C1C1CB" opacity="1.000000" stroke="none" 
	d="
M139.988739,36.987915 
	C139.654007,40.894352 136.356689,40.526356 134.438293,39.752178 
	C132.352829,38.910572 129.708771,36.618206 129.492554,34.710789 
	C129.233261,32.423431 130.706451,29.271893 132.471268,27.583782 
	C134.945267,25.217310 137.412201,25.982090 139.956284,28.817375 
	C138.055222,30.966812 132.162857,28.724001 133.486511,33.914783 
	C133.843170,35.313404 137.220490,35.941750 139.618881,36.976410 
	C140.026535,37.029152 140.002319,37.000668 139.988739,36.987915 
z"/>
<path fill="#BFBFC9" opacity="1.000000" stroke="none" 
	d="
M146.933960,50.639938 
	C148.417450,49.477051 149.900940,48.314159 151.388596,47.148792 
	C152.722229,48.061119 154.051697,48.975925 155.672623,50.307991 
	C155.674088,51.094048 155.387299,51.465427 155.093491,51.831173 
	C154.067215,53.108757 152.114212,54.483337 152.237640,55.636467 
	C152.403076,57.181843 154.160568,58.566269 155.263168,59.997704 
	C155.792542,60.684971 156.387726,61.321556 156.953110,61.981087 
	C151.024384,63.881874 149.405884,62.768242 148.970062,56.757774 
	C148.871124,55.393063 148.152817,54.073257 147.350372,52.327736 
	C146.965439,51.495102 146.949707,51.067516 146.933960,50.639938 
z"/>
<path fill="#C1C1CB" opacity="1.000000" stroke="none" 
	d="
M158.976318,28.132454 
	C158.967224,31.591003 159.095596,34.588200 158.858032,37.556099 
	C158.793961,38.356503 157.619461,39.068020 156.954666,39.820335 
	C156.315811,39.040371 155.165024,38.285847 155.124786,37.476135 
	C154.927399,33.503975 154.890015,29.509922 155.101715,25.539900 
	C155.165054,24.352152 156.216110,23.217077 156.814636,22.057873 
	C157.534378,23.261656 158.344925,24.423349 158.931549,25.688833 
	C159.184921,26.235392 158.975510,26.996466 158.976318,28.132454 
z"/>
<path fill="#8B91B3" opacity="1.000000" stroke="none" 
	d="
M56.074631,43.440506 
	C59.443855,44.011883 62.767216,45.009136 66.472023,46.011761 
	C66.899345,47.725868 66.945213,49.434612 66.596420,51.606369 
	C65.993164,52.115856 65.784561,52.162327 65.575966,52.208801 
	C64.295380,52.146519 63.014790,52.084236 61.350922,51.980907 
	C59.550282,50.962978 58.132915,49.986095 56.366051,49.008034 
	C56.020622,47.293362 56.024696,45.579872 56.074631,43.440506 
z"/>
<path fill="#878EB3" opacity="1.000000" stroke="none" 
	d="
M45.088791,40.977776 
	C46.071190,40.988243 47.053593,40.998714 48.402756,41.013527 
	C49.030190,43.162540 49.290863,45.307205 48.927887,47.731529 
	C47.487377,47.988064 46.670521,47.964939 45.902596,47.604401 
	C45.408672,47.005444 44.558342,46.378113 44.369053,46.537216 
	C41.519627,48.932323 38.757164,51.430882 35.974274,53.905144 
	C35.190666,53.836166 34.407063,53.767193 33.623455,53.698215 
	C33.843220,53.159058 34.062984,52.619896 34.687241,51.761887 
	C35.389053,51.141994 35.686382,50.840946 36.194000,50.300430 
	C36.611965,49.701202 36.819641,49.341446 37.011173,48.987526 
	C36.995026,48.993362 36.988522,49.027077 37.330021,48.981571 
	C40.143944,46.283302 42.616367,43.630539 45.088791,40.977776 
z"/>
<path fill="#7D84AE" opacity="1.000000" stroke="none" 
	d="
M45.853661,47.941814 
	C46.670521,47.964939 47.487377,47.988064 48.713272,48.024658 
	C47.992054,51.618080 46.861809,55.198029 45.485306,59.064438 
	C44.102997,58.899799 42.966949,58.448704 41.439560,57.994850 
	C40.523010,57.401848 39.997799,56.811611 39.139000,55.761909 
	C41.154831,52.848896 43.504246,50.395355 45.853661,47.941814 
z"/>
<path fill="#DDDEE7" opacity="1.000000" stroke="none" 
	d="
M25.500658,27.004194 
	C22.647417,27.389208 20.176762,27.738531 17.274364,28.148897 
	C17.780630,27.182114 18.432701,25.936895 19.044298,24.351801 
	C19.003822,24.011925 18.971132,24.006355 19.243683,24.073273 
	C19.767542,23.884884 20.018852,23.629581 20.270161,23.374277 
	C19.854809,23.269306 19.439455,23.164335 19.121803,22.785587 
	C19.457939,21.984482 19.696375,21.457153 19.947895,20.949091 
	C19.960979,20.968357 19.946590,20.938477 20.177111,20.848118 
	C20.697647,20.561647 20.874544,20.291460 20.931988,19.934078 
	C20.925650,19.920959 20.915640,19.893591 21.283127,19.927109 
	C22.808222,19.598446 23.965832,19.236267 25.123440,18.874088 
	C26.855740,21.433393 31.042732,23.762281 25.500658,27.004194 
z"/>
<path fill="#BCBCC7" opacity="1.000000" stroke="none" 
	d="
M146.898132,50.173866 
	C146.949707,51.067516 146.965439,51.495102 146.975906,52.127861 
	C146.418732,55.834957 145.866837,59.336872 145.314926,62.838787 
	C144.646439,62.804832 143.977936,62.770874 143.309448,62.736916 
	C142.458694,56.996998 143.012497,51.181213 142.961960,45.398071 
	C143.597839,45.183716 144.233704,44.969360 144.869583,44.755005 
	C145.533813,46.405937 146.198059,48.056866 146.898132,50.173866 
z"/>
<path fill="#F9F9FA" opacity="1.000000" stroke="none" 
	d="
M157.202667,61.989548 
	C156.387726,61.321556 155.792542,60.684971 155.263168,59.997704 
	C154.160568,58.566269 152.403076,57.181843 152.237640,55.636467 
	C152.114212,54.483337 154.067215,53.108757 155.093491,51.831173 
	C155.387299,51.465427 155.674088,51.094048 156.050262,50.341125 
	C156.548660,49.969547 156.960876,49.982094 157.684555,50.457127 
	C157.981186,54.615322 157.966370,58.311039 157.951553,62.006752 
	C157.951553,62.006752 157.452225,61.998009 157.202667,61.989548 
z"/>
<path fill="#C1C1CB" opacity="1.000000" stroke="none" 
	d="
M127.523209,27.725849 
	C127.834686,31.235836 128.026520,34.395046 127.860672,37.535362 
	C127.818794,38.328320 126.720863,39.189468 125.915146,39.733147 
	C125.707161,39.873489 124.261719,38.947922 124.244911,38.481037 
	C124.119873,35.006809 124.139252,31.520042 124.366516,28.053812 
	C124.385582,27.763004 126.259056,27.593779 127.523209,27.725849 
z"/>
<path fill="#C2C2CC" opacity="1.000000" stroke="none" 
	d="
M158.216385,62.258209 
	C157.966370,58.311039 157.981186,54.615322 157.994797,50.458729 
	C158.156631,49.946812 158.319702,49.895779 159.065399,49.840263 
	C160.106857,49.803181 160.565704,49.770573 161.024567,49.737968 
	C161.346756,50.904423 161.668961,52.070881 161.988358,54.017029 
	C162.001831,55.865746 162.018082,56.934765 162.034348,58.003788 
	C161.566284,60.070602 163.246796,63.831684 158.216385,62.258209 
z"/>
<path fill="#8B91B3" opacity="1.000000" stroke="none" 
	d="
M35.983707,50.539902 
	C35.686382,50.840946 35.389053,51.141994 34.989532,51.538456 
	C32.900017,51.421917 29.598118,53.339272 30.063446,48.424789 
	C29.840475,48.056171 30.153183,48.029961 30.683292,48.178402 
	C31.814375,47.887299 32.415348,47.447754 33.016319,47.008209 
	C33.016319,47.008209 32.999027,46.999851 33.346375,46.998100 
	C36.416416,44.648689 39.139111,42.301022 41.861801,39.953354 
	C42.193695,40.222679 42.525589,40.492008 42.817295,41.313217 
	C40.847580,44.252430 38.918053,46.639755 36.988522,49.027077 
	C36.988522,49.027077 36.995026,48.993362 36.626484,49.049824 
	C36.166531,49.584156 36.075119,50.062031 35.983707,50.539902 
z"/>
<path fill="#9EA2BC" opacity="1.000000" stroke="none" 
	d="
M37.279053,29.814129 
	C35.941780,29.671070 34.898643,29.346172 33.524742,29.025806 
	C33.442879,27.593025 33.691776,26.155712 34.040169,24.363092 
	C36.725529,25.115957 39.311390,26.224127 41.951035,27.686634 
	C40.527603,28.571413 39.050396,29.101852 37.279053,29.814129 
z"/>
<path fill="#E3E5EE" opacity="1.000000" stroke="none" 
	d="
M45.902596,47.604401 
	C43.504246,50.395355 41.154831,52.848896 38.857468,55.666130 
	C38.037773,55.497066 37.166023,54.964314 36.134270,54.168350 
	C38.757164,51.430882 41.519627,48.932323 44.369053,46.537216 
	C44.558342,46.378113 45.408672,47.005444 45.902596,47.604401 
z"/>
<path fill="#9EA2BC" opacity="1.000000" stroke="none" 
	d="
M17.001635,22.004141 
	C16.662531,21.081169 16.323425,20.158197 15.958752,18.853218 
	C17.667818,17.992388 19.402452,17.513565 21.436222,17.341358 
	C21.462118,18.396513 21.188879,19.145052 20.915640,19.893591 
	C20.915640,19.893591 20.925650,19.920959 20.660526,19.965834 
	C20.245796,20.319963 20.096193,20.629219 19.946590,20.938477 
	C19.946590,20.938477 19.960979,20.968357 19.626907,20.923840 
	C18.529102,21.254263 17.765368,21.629202 17.001635,22.004141 
z"/>
<path fill="#F9F9FA" opacity="1.000000" stroke="none" 
	d="
M161.018280,49.371132 
	C160.565704,49.770573 160.106857,49.803181 159.308990,49.760551 
	C158.504074,48.349411 158.038162,47.013512 157.368210,45.092617 
	C158.459198,44.699612 159.684082,44.258362 161.556229,43.583958 
	C161.323715,45.899715 161.167862,47.452003 161.018280,49.371132 
z"/>
<path fill="#E3E5EE" opacity="1.000000" stroke="none" 
	d="
M21.283127,19.927109 
	C21.188879,19.145052 21.462118,18.396513 21.806711,17.350300 
	C22.920830,17.493786 23.963598,17.934942 25.064903,18.625095 
	C23.965832,19.236267 22.808222,19.598446 21.283127,19.927109 
z"/>
<path fill="#F9F9FA" opacity="1.000000" stroke="none" 
	d="
M162.353027,58.002304 
	C162.018082,56.934765 162.001831,55.865746 162.009857,54.396477 
	C162.459274,53.997131 162.884415,53.998032 163.627258,53.996605 
	C163.964340,55.064419 163.983719,56.134567 163.973938,57.605225 
	C163.520432,58.004093 163.096054,58.002460 162.353027,58.002304 
z"/>
<path fill="#E3E5EE" opacity="1.000000" stroke="none" 
	d="
M66.002159,62.514839 
	C65.599800,63.244949 65.210747,63.660568 64.361359,63.996826 
	C63.762802,63.802784 63.624573,63.688099 63.486343,63.573414 
	C64.121582,62.776371 64.756821,61.979332 65.678528,61.061691 
	C65.981819,61.360844 65.998642,61.780594 66.002159,62.514839 
z"/>
<path fill="#979BB7" opacity="1.000000" stroke="none" 
	d="
M65.745453,52.379852 
	C65.784561,52.162327 65.993164,52.115856 66.519058,52.027332 
	C66.529213,52.173820 66.222069,52.362362 65.745453,52.379852 
z"/>
<path fill="#E3E5EE" opacity="1.000000" stroke="none" 
	d="
M27.434549,18.533092 
	C27.395939,18.472042 27.473160,18.594143 27.434549,18.533092 
z"/>
<path fill="#E3E5EE" opacity="1.000000" stroke="none" 
	d="
M56.596031,70.423050 
	C57.613091,68.714180 58.855061,67.232178 60.097031,65.750175 
	C60.539986,66.174171 60.982937,66.598167 61.425892,67.022171 
	C59.890907,68.231422 58.355919,69.440666 56.596031,70.423050 
z"/>
<path fill="#E3E5EE" opacity="1.000000" stroke="none" 
	d="
M64.092430,64.107086 
	C63.896069,64.440956 63.508316,64.585205 63.120567,64.729446 
	C63.095303,64.470169 63.070038,64.210892 63.265560,63.762516 
	C63.624573,63.688099 63.762802,63.802784 64.092430,64.107086 
z"/>
<path fill="#E3E5EE" opacity="1.000000" stroke="none" 
	d="
M41.861820,39.652016 
	C39.139111,42.301022 36.416416,44.648689 33.350868,47.006821 
	C34.926006,43.268463 36.867897,39.547230 41.861820,39.652016 
z"/>
<path fill="#E3E5EE" opacity="1.000000" stroke="none" 
	d="
M37.330021,48.981571 
	C38.918053,46.639755 40.847580,44.252430 42.958019,41.605797 
	C43.567131,41.234993 43.995335,41.123497 44.756165,40.994892 
	C42.616367,43.630539 40.143944,46.283302 37.330021,48.981571 
z"/>
<path fill="#E3E5EE" opacity="1.000000" stroke="none" 
	d="
M32.657059,46.909336 
	C32.415348,47.447754 31.814375,47.887299 30.839914,48.169018 
	C31.076885,47.610947 31.687344,47.210705 32.657059,46.909336 
z"/>
<path fill="#F9F9FA" opacity="1.000000" stroke="none" 
	d="
M117.730026,35.374268 
	C116.197807,35.736168 114.826965,35.727242 113.456116,35.718315 
	C113.504555,34.147213 113.275467,32.486183 113.740753,31.050142 
	C113.921814,30.491329 115.668579,30.439817 116.702148,30.157227 
	C117.098564,31.772631 117.494980,33.388035 117.730026,35.374268 
z"/>
<path fill="#E3E5EE" opacity="1.000000" stroke="none" 
	d="
M17.161047,24.166317 
	C15.827926,25.264988 14.494804,26.363657 13.161683,27.462326 
	C12.851282,27.040585 12.540882,26.618841 12.230482,26.197100 
	C13.429750,25.372990 14.629020,24.548880 16.328106,23.797184 
	C16.827925,23.869600 17.161047,24.166317 17.161047,24.166317 
z"/>
<path fill="#E3E5EE" opacity="1.000000" stroke="none" 
	d="
M16.931393,22.271988 
	C17.765368,21.629202 18.529102,21.254263 19.613823,20.904575 
	C19.696375,21.457153 19.457939,21.984482 19.081974,23.020756 
	C18.944447,23.529701 18.971132,24.006355 18.971132,24.006355 
	C18.971132,24.006355 19.003822,24.011925 19.009811,23.997177 
	C18.601627,24.004564 18.187454,24.026697 17.467165,24.107574 
	C17.161047,24.166317 16.827925,23.869600 16.656040,23.720577 
	C16.609819,23.227648 16.735485,22.883741 16.931393,22.271988 
z"/>
<path fill="#F9F9FA" opacity="1.000000" stroke="none" 
	d="
M94.460464,52.393478 
	C95.046776,52.762913 95.343750,52.949909 95.525604,53.215683 
	C97.206833,55.672802 97.088654,58.005821 94.435928,59.525238 
	C93.832001,59.871159 91.557556,58.849037 91.409607,58.163567 
	C90.883736,55.727119 89.823814,52.627071 94.460464,52.393478 
z"/>
<path fill="#E3E5EE" opacity="1.000000" stroke="none" 
	d="
M36.194000,50.300430 
	C36.075119,50.062031 36.166531,49.584156 36.642632,49.043987 
	C36.819641,49.341446 36.611965,49.701202 36.194000,50.300430 
z"/>
<path fill="#8B91B3" opacity="1.000000" stroke="none" 
	d="
M19.243683,24.073273 
	C18.971132,24.006355 18.944447,23.529701 18.984276,23.294533 
	C19.439455,23.164335 19.854809,23.269306 20.270161,23.374277 
	C20.018852,23.629581 19.767542,23.884884 19.243683,24.073273 
z"/>
<path fill="#E3E5EE" opacity="1.000000" stroke="none" 
	d="
M20.177111,20.848118 
	C20.096193,20.629219 20.245796,20.319963 20.666862,19.978952 
	C20.874544,20.291460 20.697647,20.561647 20.177111,20.848118 
z"/>
</svg>